<svg width="512" height="512" viewBox="0 0 512 512" xmlns="http://www.w3.org/2000/svg">
  <defs>
    <linearGradient id="g" x1="0" x2="1" y1="0" y2="1">
      <stop offset="0" stop-color="#dcdfe6"/>
      <stop offset="1" stop-color="#9aa2ad"/>
    </linearGradient>
  </defs>
  <rect width="512" height="512" rx="120" fill="#0f1115"/>
  <path d="M128 256c0-70.7 57.3-128 128-128 34.3 0 65.5 13.7 88.2 36l-36.4 36.4C294 186.8 276 179 256 179c-42.5 0-77 34.5-77 77s34.5 77 77 77c19.9 0 38-7.8 51.8-21.4l36.4 36.4C321.5 370.3 290.3 384 256 384c-70.7 0-128-57.3-128-128z" fill="url(#g)"/>
  <circle cx="355" cy="157" r="26" fill="#3b82f6"/>
</svg>
